{"title":"Boyhood 2014 720p BRRip x264 RmD","uid":11367975,"size":2111927420,"categoryP":"video","categoryS":"hd___movies","magnet":"?xt=urn:btih:34ea7a661adf51a4c6ca24470448739f23555616&amp;dn=Boyhood+2014+720p+BRRip+x264+RmD&amp;tr=udp%3A%2F%2Ftracker.openbittorrent.com%3A80&amp;tr=udp%3A%2F%2Fopen.demonii.com%3A1337&amp;tr=udp%3A%2F%2Ftracker.coppersurfer.tk%3A6969&amp;tr=udp%3A%2F%2Fexodus.desync.com%3A6969","seeders":1,"leechers":0,"uploader":"RajMahal","files":-1,"time":1415061029,"description":"Screens :\n &lt;a href=&quot;\nhttp://s28.postimg.org/jjoothqm5/vlcsnap_2014_11_04_00h20m56s249.png&quot; rel=&quot;nofollow&quot; target=&quot;_NEW&quot;&gt;\nhttp://s28.postimg.org/jjoothqm5/vlcsnap_2014_11_04_00h20m56s249.png&lt;/a&gt;\n &lt;a href=&quot;\nhttp://s28.postimg.org/c8t6hda7x/vlcsnap_2014_11_04_00h21m06s94.png&quot; rel=&quot;nofollow&quot; target=&quot;_NEW&quot;&gt;\nhttp://s28.postimg.org/c8t6hda7x/vlcsnap_2014_11_04_00h21m06s94.png&lt;/a&gt;\n &lt;a href=&quot;\nhttp://s28.postimg.org/3zhb2yghp/vlcsnap_2014_11_04_00h21m31s94.png&quot; rel=&quot;nofollow&quot; target=&quot;_NEW&quot;&gt;\nhttp://s28.postimg.org/3zhb2yghp/vlcsnap_2014_11_04_00h21m31s94.png&lt;/a&gt;\n &lt;a href=&quot;\nhttp://s28.postimg.org/9c65h34e5/vlcsnap_2014_11_04_00h22m21s65.png&quot; rel=&quot;nofollow&quot; target=&quot;_NEW&quot;&gt;\nhttp://s28.postimg.org/9c65h34e5/vlcsnap_2014_11_04_00h22m21s65.png&lt;/a&gt;\n &lt;a href=&quot;\nhttp://s28.postimg.org/n20opvri5/vlcsnap_2014_11_04_00h22m39s248.png&quot; rel=&quot;nofollow&quot; target=&quot;_NEW&quot;&gt;\nhttp://s28.postimg.org/n20opvri5/vlcsnap_2014_11_04_00h22m39s248.png&lt;/a&gt;\n &lt;a href=&quot;\nhttp://s28.postimg.org/yw8fniprx/vlcsnap_2014_11_04_00h22m59s212.png&quot; rel=&quot;nofollow&quot; target=&quot;_NEW&quot;&gt;\nhttp://s28.postimg.org/yw8fniprx/vlcsnap_2014_11_04_00h22m59s212.png&lt;/a&gt;\n\n\n\n\nGeneral\nComplete name                            : E:Boyhood 2014 720p BRRip x264 RmD\nFormat                                   : MPEG-4\nFormat profile                           : Base Media\nCodec ID                                 : isom\nFile size                                : 1.97 GiB\nDuration                                 : 2h 45mn\nOverall bit rate mode                    : Variable\nOverall bit rate                         : 1 700 Kbps\nEncoded date                             : UTC 2014-11-03 23:00:31\nTagged date                              : UTC 2014-11-03 23:00:31\n\nVideo\nID                                       : 1\nFormat                                   : AVC\nFormat/Info                              : Advanced Video Codec\nFormat profile                           : &lt;a class=&quot;__cf_email__&quot; href=&quot;/cdn-cgi/l/email-protection&quot; data-cfemail=&quot;f3bb9a949bb3bfc0ddc2&quot;&gt;[email&amp;#160;protected]&lt;/a&gt;&lt;script cf-hash='f9e31' type=&quot;text/javascript&quot;&gt;\n/* &lt;![CDATA[ */!function(){try{var t=&quot;currentScript&quot;in document?document.currentScript:function(){for(var t=document.getElementsByTagName(&quot;script&quot;),e=t.length;e--;)if(t[e].getAttribute(&quot;cf-hash&quot;))return t[e]}();if(t&amp;&amp;t.previousSibling){var e,r,n,i,c=t.previousSibling,a=c.getAttribute(&quot;data-cfemail&quot;);if(a){for(e=&quot;&quot;,r=parseInt(a.substr(0,2),16),n=2;a.length-n;n+=2)i=parseInt(a.substr(n,2),16)^r,e+=String.fromCharCode(i);e=document.createTextNode(e),c.parentNode.replaceChild(e,c)}}}catch(u){}}();/* ]]&gt; */&lt;/script&gt;\nFormat settings, CABAC                   : Yes\nFormat settings, ReFrames                : 4 frames\nCodec ID                                 : avc1\nCodec ID/Info                            : Advanced Video Coding\nDuration                                 : 2h 45mn\nBit rate                                 : 1 249 Kbps\nMaximum bit rate                         : 6 271 Kbps\nWidth                                    : 1 280 pixels\nHeight                                   : 688 pixels\nDisplay aspect ratio                     : 1.85:1\nFrame rate mode                          : Constant\nFrame rate                               : 23.976 fps\nColor space                              : YUV\nChroma subsampling                       : 4:2:0\nBit depth                                : 8 bits\nScan type                                : Progressive\nBits/(Pixel*Frame)                       : 0.059\nStream size                              : 1.44 GiB (73%)\nWriting library                          : x264 core 142 r2431 ac76440\nEncoding settings                        : cabac=1 / ref=3 / deblock=1:0:0 / analyse=0x3:0x113 / me=hex / subme=7 / psy=1 / psy_rd=1.00:0.00 / mixed_ref=1 / me_range=16 / chroma_me=1 / trellis=1 / 8x8dct=1 / cqm=0 / deadzone=21,11 / fast_pskip=1 / chroma_qp_offset=-2 / threads=6 / lookahead_threads=1 / sliced_threads=0 / nr=0 / decimate=1 / interlaced=0 / bluray_compat=0 / constrained_intra=0 / bframes=3 / b_pyramid=2 / b_adapt=1 / b_bias=0 / direct=1 / weightb=1 / open_gop=0 / weightp=2 / keyint=240 / keyint_min=23 / scenecut=40 / intra_refresh=0 / rc_lookahead=40 / rc=2pass / mbtree=1 / bitrate=1249 / ratetol=1.0 / qcomp=0.60 / qpmin=0 / qpmax=69 / qpstep=4 / cplxblur=20.0 / qblur=0.5 / ip_ratio=1.40 / aq=1:1.00\nEncoded date                             : UTC 2014-11-03 23:00:31\nTagged date                              : UTC 2014-11-03 23:03:12\n\nAudio\nID                                       : 2\nFormat                                   : AC-3\nFormat/Info                              : Audio Coding 3\nMode extension                           : CM (complete main)\nFormat settings, Endianness              : Big\nCodec ID                                 : ac-3\nDuration                                 : 2h 45mn\nBit rate mode                            : Constant\nBit rate                                 : 448 Kbps\nChannel(s)                               : 6 channels\nChannel positions                        : Front: L C R, Side: L R, LFE\nSampling rate                            : 44.1 KHz\nBit depth                                : 16 bits\nCompression mode                         : Lossy\nStream size                              : 531 MiB (26%)\nLanguage                                 : English\nEncoded date                             : UTC 2014-11-03 23:02:45\nTagged date                              : UTC 2014-11-03 23:03:12\n\nText\nID                                       : 3\nFormat                                   : Timed Text\nCodec ID                                 : tx3g\nDuration                                 : 2h 39mn\nBit rate mode                            : Variable\nBit rate                                 : 95 bps\nStream size                              : 111 KiB (0%)\nLanguage                                 : English\nEncoded date                             : UTC 2014-11-03 23:03:11\nTagged date                              : UTC 2014-11-03 23:03:12","torrent":{"xt":"urn:btih:34ea7a661adf51a4c6ca24470448739f23555616","amp;dn":"Boyhood+2014+720p+BRRip+x264+RmD","amp;tr":["udp%3A%2F%2Ftracker.openbittorrent.com%3A80","udp%3A%2F%2Fopen.demonii.com%3A1337","udp%3A%2F%2Ftracker.coppersurfer.tk%3A6969","udp%3A%2F%2Fexodus.desync.com%3A6969"],"infoHash":"34ea7a661adf51a4c6ca24470448739f23555616","infoHashBuffer":{"type":"Buffer","data":[52,234,122,102,26,223,81,164,198,202,36,71,4,72,115,159,35,85,86,22]},"announce":[],"urlList":[]}}